<?xml version="1.0" encoding="UTF-8" standalone="no"?>
<svg width="164px" height="164px" viewBox="0 0 164 164" version="1.1" xmlns="http://www.w3.org/2000/svg" xmlns:xlink="http://www.w3.org/1999/xlink">
    <!-- Generator: Sketch 46.2 (44496) - http://www.bohemiancoding.com/sketch -->
    <title>Group</title>
    <desc>Created with Sketch.</desc>
    <defs></defs>
    <g id="Page-1" stroke="none" stroke-width="1" fill="none" fill-rule="evenodd">
        <g id="banner-web" transform="translate(-565.000000, -512.000000)" stroke="#FFFFFF" stroke-width="6">
            <g id="Group" transform="translate(568.000000, 515.000000)">
                <path d="M126,79 C126,104.957184 104.957184,126 79,126 C53.0423385,126 32,104.957184 32,79 C32,53.0428161 53.0423385,32 79,32 C104.957184,32 126,53.0428161 126,79 Z" id="Stroke-9" opacity="0.7"></path>
                <path d="M108,79 C108,95.0161348 95.0161348,108 79,108 C62.9835706,108 50,95.0161348 50,79 C50,62.9838652 62.9835706,50 79,50 C95.0161348,50 108,62.9838652 108,79 Z" id="Stroke-9-Copy"></path>
                <path d="M142,79 C142,113.794136 113.794136,142 79,142 C44.2058636,142 16,113.794136 16,79 C16,44.2058636 44.2058636,16 79,16 C113.794136,16 142,44.2058636 142,79 Z" id="Stroke-11" opacity="0.4"></path>
                <path d="M158,79 C158,122.630503 122.630503,158 79,158 C35.369497,158 0,122.630503 0,79 C0,35.369497 35.369497,0 79,0 C122.630503,0 158,35.369497 158,79 Z" id="Stroke-13" opacity="0.1"></path>
                <path d="M67.0268407,70.0464248 C64.3230623,72.7749913 64.3257109,77.1656358 67.0268407,79.8968422 L78.9925271,92 C82.9857433,87.9702891 86.9789595,83.9405406 90.9721378,79.9108297 C93.6759541,77.182267 93.6759541,72.7889788 90.9721378,70.0604123 C88.2683216,67.3318459 83.9148892,67.3318084 81.2110352,70.0604123 L79.0064136,72.285159 L76.7879812,70.0464248 C74.0841271,67.3178584 69.7306947,67.3178584 67.0268407,70.0464248 L67.0268407,70.0464248 Z" id="Shape" stroke-linecap="round" stroke-linejoin="round" fill-rule="nonzero"></path>
            </g>
        </g>
    </g>
</svg>